<svg width="32" height="32" viewBox="0 0 32 32" fill="none" xmlns="http://www.w3.org/2000/svg">
<rect x="0.25" y="0.25" width="31.5" height="31.5" rx="1.75" fill="#D10123" fill-opacity="0.25" stroke="#D10123" stroke-width="0.5"/>
<path d="M25.6686 12.9483L16.2936 7.94833C16.2031 7.90018 16.1023 7.875 15.9998 7.875C15.8974 7.875 15.7965 7.90018 15.7061 7.94833L6.33105 12.9483C6.23106 13.0016 6.14743 13.0811 6.08912 13.1783C6.0308 13.2754 6 13.3866 6 13.4999C6 13.6132 6.0308 13.7244 6.08912 13.8215C6.14743 13.9187 6.23106 13.9982 6.33105 14.0515L8.4998 15.2085V18.9913C8.49916 19.2983 8.61214 19.5947 8.81699 19.8233C9.84043 20.9632 12.1334 22.8749 15.9998 22.8749C17.2818 22.8855 18.5542 22.6533 19.7498 22.1905V24.7499C19.7498 24.9157 19.8157 25.0746 19.9329 25.1918C20.0501 25.309 20.209 25.3749 20.3748 25.3749C20.5406 25.3749 20.6995 25.309 20.8167 25.1918C20.934 25.0746 20.9998 24.9157 20.9998 24.7499V21.5866C21.8148 21.1161 22.5513 20.5212 23.1826 19.8233C23.3875 19.5947 23.5005 19.2983 23.4998 18.9913V15.2085L25.6686 14.0515C25.7686 13.9982 25.8522 13.9187 25.9105 13.8215C25.9688 13.7244 25.9996 13.6132 25.9996 13.4999C25.9996 13.3866 25.9688 13.2754 25.9105 13.1783C25.8522 13.0811 25.7686 13.0016 25.6686 12.9483ZM15.9998 21.6249C12.6193 21.6249 10.6311 19.9733 9.7498 18.9913V15.8749L15.7061 19.0515C15.7965 19.0996 15.8974 19.1248 15.9998 19.1248C16.1023 19.1248 16.2031 19.0996 16.2936 19.0515L19.7498 17.2085V20.8288C18.7654 21.2882 17.5248 21.6249 15.9998 21.6249ZM22.2498 18.9882C21.8752 19.4039 21.456 19.7772 20.9998 20.1015V16.5413L22.2498 15.8749V18.9882ZM20.6873 15.2921L20.6701 15.2819L16.2951 12.9483C16.1492 12.8738 15.9797 12.8595 15.8234 12.9087C15.667 12.9579 15.5362 13.0665 15.4592 13.2111C15.3821 13.3558 15.365 13.5249 15.4115 13.6821C15.4579 13.8393 15.5643 13.9719 15.7076 14.0515L19.3592 15.9999L15.9998 17.7913L7.95293 13.4999L15.9998 9.20849L24.0467 13.4999L20.6873 15.2921Z" fill="#D10123"/>
</svg>
