<svg width="32" height="32" viewBox="0 0 32 32" fill="none" xmlns="http://www.w3.org/2000/svg">
<path d="M23.5 9.75H8.5C8.33424 9.75 8.17527 9.81585 8.05806 9.93306C7.94085 10.0503 7.875 10.2092 7.875 10.375V21C7.875 21.3315 8.0067 21.6495 8.24112 21.8839C8.47554 22.1183 8.79348 22.25 9.125 22.25H22.875C23.2065 22.25 23.5245 22.1183 23.7589 21.8839C23.9933 21.6495 24.125 21.3315 24.125 21V10.375C24.125 10.2092 24.0592 10.0503 23.9419 9.93306C23.8247 9.81585 23.6658 9.75 23.5 9.75ZM21.893 11L16 16.4023L10.107 11H21.893ZM22.875 21H9.125V11.7961L15.5773 17.7109C15.6927 17.8168 15.8435 17.8755 16 17.8755C16.1565 17.8755 16.3073 17.8168 16.4227 17.7109L22.875 11.7961V21Z" fill="#D10123"/>
<rect x="0.25" y="0.25" width="31.5" height="31.5" rx="1.75" fill="#D10123" fill-opacity="0.25" stroke="#D10123" stroke-width="0.5"/>
</svg>
