<svg width="32" height="32" viewBox="0 0 32 32" fill="none" xmlns="http://www.w3.org/2000/svg">
<path d="M23.7594 11.7318L20.268 8.24122C20.1519 8.12511 20.0141 8.03301 19.8624 7.97018C19.7107 7.90734 19.5482 7.875 19.384 7.875C19.2198 7.875 19.0572 7.90734 18.9056 7.97018C18.7539 8.03301 18.6161 8.12511 18.5 8.24122L8.86641 17.8748C8.74983 17.9905 8.65741 18.1281 8.59451 18.2798C8.5316 18.4315 8.49948 18.5942 8.50001 18.7584V22.2498C8.50001 22.5813 8.6317 22.8993 8.86612 23.1337C9.10054 23.3681 9.41849 23.4998 9.75001 23.4998H22.875C23.0408 23.4998 23.1997 23.434 23.3169 23.3168C23.4342 23.1995 23.5 23.0406 23.5 22.8748C23.5 22.7091 23.4342 22.5501 23.3169 22.4329C23.1997 22.3157 23.0408 22.2498 22.875 22.2498H15.0094L23.7594 13.4998C23.8755 13.3837 23.9676 13.2459 24.0304 13.0942C24.0933 12.9426 24.1256 12.78 24.1256 12.6158C24.1256 12.4517 24.0933 12.2891 24.0304 12.1374C23.9676 11.9857 23.8755 11.8479 23.7594 11.7318ZM13.2414 22.2498H9.75001V18.7584L16.625 11.8834L20.1164 15.3748L13.2414 22.2498ZM21 14.4912L17.5094 10.9998L19.3844 9.12481L22.875 12.6162L21 14.4912Z" fill="#1B80C8"/>
<rect x="0.25" y="0.25" width="31.5" height="31.5" rx="1.75" fill="#1B80C8" fill-opacity="0.25" stroke="#1B80C8" stroke-width="0.5"/>
</svg>
