<svg width="32" height="33" viewBox="0 0 32 33" fill="none" xmlns="http://www.w3.org/2000/svg">
<rect x="0.25" y="0.916687" width="31.5" height="31.5" rx="1.75" fill="#D10123" fill-opacity="0.25" stroke="#D10123" stroke-width="0.5"/>
<path d="M19.75 7.91669H12.25C11.7527 7.91669 11.2758 8.11423 10.9242 8.46586C10.5725 8.81749 10.375 9.29441 10.375 9.79169V23.5417C10.375 24.039 10.5725 24.5159 10.9242 24.8675C11.2758 25.2191 11.7527 25.4167 12.25 25.4167H19.75C20.2473 25.4167 20.7242 25.2191 21.0758 24.8675C21.4275 24.5159 21.625 24.039 21.625 23.5417V9.79169C21.625 9.29441 21.4275 8.81749 21.0758 8.46586C20.7242 8.11423 20.2473 7.91669 19.75 7.91669ZM20.375 23.5417C20.375 23.7074 20.3092 23.8664 20.1919 23.9836C20.0747 24.1008 19.9158 24.1667 19.75 24.1667H12.25C12.0842 24.1667 11.9253 24.1008 11.8081 23.9836C11.6908 23.8664 11.625 23.7074 11.625 23.5417V9.79169C11.625 9.62593 11.6908 9.46696 11.8081 9.34975C11.9253 9.23254 12.0842 9.16669 12.25 9.16669H19.75C19.9158 9.16669 20.0747 9.23254 20.1919 9.34975C20.3092 9.46696 20.375 9.62593 20.375 9.79169V23.5417ZM19.125 11.0417C19.125 11.2074 19.0592 11.3664 18.9419 11.4836C18.8247 11.6008 18.6658 11.6667 18.5 11.6667H13.5C13.3342 11.6667 13.1753 11.6008 13.0581 11.4836C12.9408 11.3664 12.875 11.2074 12.875 11.0417C12.875 10.8759 12.9408 10.717 13.0581 10.5997C13.1753 10.4825 13.3342 10.4167 13.5 10.4167H18.5C18.6658 10.4167 18.8247 10.4825 18.9419 10.5997C19.0592 10.717 19.125 10.8759 19.125 11.0417Z" fill="#D10123"/>
</svg>
