<svg width="32" height="32" viewBox="0 0 32 32" fill="none" xmlns="http://www.w3.org/2000/svg">
<path d="M24.0407 22.5607C22.8508 20.5037 21.0172 19.0287 18.8774 18.3295C19.9358 17.6994 20.7582 16.7392 21.2182 15.5965C21.6781 14.4538 21.7503 13.1917 21.4235 12.004C21.0968 10.8163 20.3892 9.76868 19.4094 9.02207C18.4296 8.27545 17.2318 7.87109 16 7.87109C14.7682 7.87109 13.5704 8.27545 12.5907 9.02207C11.6109 9.76868 10.9033 10.8163 10.5765 12.004C10.2498 13.1917 10.3219 14.4538 10.7819 15.5965C11.2419 16.7392 12.0642 17.6994 13.1227 18.3295C10.9828 19.0279 9.14925 20.5029 7.9594 22.5607C7.91577 22.6319 7.88683 22.711 7.87429 22.7935C7.86174 22.8761 7.86585 22.9602 7.88638 23.0411C7.9069 23.122 7.94341 23.198 7.99377 23.2646C8.04413 23.3311 8.10731 23.3869 8.17958 23.4287C8.25185 23.4704 8.33175 23.4973 8.41457 23.5076C8.49738 23.518 8.58143 23.5117 8.66176 23.489C8.74209 23.4664 8.81708 23.4279 8.88228 23.3758C8.94749 23.3237 9.00161 23.2591 9.04143 23.1857C10.5133 20.642 13.1149 19.1232 16 19.1232C18.8852 19.1232 21.4867 20.642 22.9586 23.1857C22.9984 23.2591 23.0526 23.3237 23.1178 23.3758C23.183 23.4279 23.258 23.4664 23.3383 23.489C23.4186 23.5117 23.5027 23.518 23.5855 23.5076C23.6683 23.4973 23.7482 23.4704 23.8205 23.4287C23.8927 23.3869 23.9559 23.3311 24.0063 23.2646C24.0566 23.198 24.0932 23.122 24.1137 23.0411C24.1342 22.9602 24.1383 22.8761 24.1258 22.7935C24.1132 22.711 24.0843 22.6319 24.0407 22.5607ZM11.625 13.4982C11.625 12.6329 11.8816 11.7871 12.3623 11.0676C12.8431 10.3481 13.5264 9.78738 14.3258 9.45625C15.1252 9.12511 16.0049 9.03847 16.8535 9.20728C17.7022 9.37609 18.4818 9.79277 19.0936 10.4046C19.7055 11.0165 20.1222 11.796 20.291 12.6447C20.4598 13.4934 20.3731 14.373 20.042 15.1725C19.7109 15.9719 19.1501 16.6552 18.4306 17.1359C17.7112 17.6166 16.8653 17.8732 16 17.8732C14.8401 17.872 13.728 17.4106 12.9078 16.5904C12.0876 15.7702 11.6263 14.6582 11.625 13.4982Z" fill="#D10123"/>
<rect x="0.25" y="0.25" width="31.5" height="31.5" rx="1.75" fill="#D10123" fill-opacity="0.25" stroke="#D10123" stroke-width="0.5"/>
</svg>
