<svg width="20" height="20" viewBox="0 0 20 20" fill="none" xmlns="http://www.w3.org/2000/svg">
<path d="M18.3039 8.97177L14.7882 12.0054L15.8593 16.5421C15.9184 16.7884 15.9032 17.0466 15.8156 17.2843C15.728 17.5219 15.5719 17.7282 15.3671 17.8772C15.1623 18.0262 14.9179 18.1111 14.6648 18.1213C14.4118 18.1314 14.1614 18.0663 13.9453 17.9343L9.99995 15.5061L6.0523 17.9343C5.83622 18.0656 5.58613 18.13 5.3335 18.1195C5.08087 18.109 4.837 18.0239 4.63261 17.8751C4.42822 17.7262 4.27243 17.5202 4.18488 17.283C4.09732 17.0458 4.08191 16.788 4.14058 16.5421L5.21558 12.0054L1.69995 8.97177C1.50878 8.80654 1.37052 8.58865 1.30244 8.34532C1.23436 8.10198 1.23947 7.84398 1.31715 7.60354C1.39483 7.36309 1.54162 7.15086 1.73919 6.99335C1.93677 6.83583 2.17637 6.74001 2.42808 6.71786L7.03745 6.34598L8.81558 2.04286C8.91182 1.80834 9.07563 1.60774 9.28618 1.46656C9.49673 1.32538 9.7445 1.25 9.998 1.25C10.2515 1.25 10.4993 1.32538 10.7098 1.46656C10.9204 1.60774 11.0842 1.80834 11.1804 2.04286L12.9578 6.34598L17.5671 6.71786C17.8193 6.73919 18.0596 6.83447 18.2579 6.99177C18.4562 7.14907 18.6037 7.36139 18.6819 7.60212C18.76 7.84286 18.7654 8.10131 18.6973 8.34509C18.6292 8.58886 18.4907 8.80713 18.2992 8.97255L18.3039 8.97177Z" fill="#FA8305"/>
</svg>
