<svg width="20" height="20" viewBox="0 0 20 20" fill="none" xmlns="http://www.w3.org/2000/svg">
<path d="M9.99707 1.75C10.1514 1.75001 10.3025 1.79589 10.4307 1.88184C10.5587 1.96773 10.6582 2.08983 10.7168 2.23242L10.7178 2.2334L12.4951 6.53711L12.6113 6.81934L12.917 6.84473L17.5244 7.21484V7.21582C17.6784 7.22892 17.8252 7.28773 17.9463 7.38379C18.0674 7.47991 18.1573 7.60978 18.2051 7.75684C18.2528 7.90391 18.2564 8.06202 18.2148 8.21094C18.1732 8.35968 18.0885 8.49275 17.9717 8.59375L16.6221 9.75879L16.626 9.75781L14.4609 11.627L14.2305 11.8252L14.3008 12.1201L15.3721 16.6572V16.6592C15.408 16.8092 15.3991 16.9666 15.3457 17.1113C15.2923 17.2561 15.197 17.3818 15.0723 17.4727C14.9474 17.5635 14.7979 17.6159 14.6436 17.6221C14.4894 17.6282 14.3367 17.5883 14.2051 17.5078H14.2041L10.2607 15.0801L9.99902 14.9189L9.7373 15.0801L5.79199 17.5068C5.66029 17.5869 5.5075 17.6265 5.35352 17.6201C5.19947 17.6137 5.05041 17.5615 4.92578 17.4707C4.80141 17.3801 4.70671 17.2547 4.65332 17.1104C4.59994 16.9657 4.59023 16.8081 4.62598 16.6582V16.6572L5.70117 12.1211L5.77148 11.8252L5.54102 11.627L2.02539 8.59277C1.90898 8.49194 1.82477 8.35923 1.7832 8.21094C1.74159 8.06222 1.74452 7.90379 1.79199 7.75684C1.83946 7.61015 1.9293 7.48093 2.0498 7.38477C2.1705 7.28854 2.31695 7.2294 2.4707 7.21582L2.46973 7.21484L7.07715 6.84473L7.38184 6.81934L7.49902 6.53711L9.27637 2.2334L9.27734 2.23242C9.33594 2.08982 9.43544 1.96772 9.56348 1.88184C9.69166 1.79589 9.84274 1.75 9.99707 1.75Z" stroke="#FB9E3C"/>
</svg>
