<svg width="20" height="20" viewBox="0 0 20 20" fill="none" xmlns="http://www.w3.org/2000/svg">
<path d="M9.99805 1.75C10.1524 1.75001 10.3035 1.79589 10.4316 1.88184C10.5597 1.96773 10.6592 2.08983 10.7178 2.23242L10.7188 2.2334L12.4961 6.53711L12.6123 6.81934L12.918 6.84473L17.5254 7.21484V7.21582C17.6794 7.22892 17.8262 7.28773 17.9473 7.38379C18.0684 7.47991 18.1583 7.60978 18.2061 7.75684C18.2538 7.90391 18.2574 8.06202 18.2158 8.21094C18.1742 8.35968 18.0895 8.49275 17.9727 8.59375L16.624 9.75879L16.627 9.75781L14.4619 11.627L14.2314 11.8252L14.3018 12.1201L15.373 16.6572V16.6592C15.409 16.8092 15.4 16.9666 15.3467 17.1113C15.2933 17.2561 15.198 17.3818 15.0732 17.4727C14.9484 17.5635 14.7988 17.6159 14.6445 17.6221C14.4903 17.6282 14.3377 17.5883 14.2061 17.5078H14.2051L10.2617 15.0801L10 14.9189L9.73828 15.0801L5.79297 17.5068C5.66127 17.5869 5.50848 17.6265 5.35449 17.6201C5.20045 17.6137 5.05139 17.5615 4.92676 17.4707C4.80238 17.3801 4.70769 17.2547 4.6543 17.1104C4.60092 16.9657 4.59121 16.8081 4.62695 16.6582V16.6572L5.70215 12.1211L5.77246 11.8252L5.54199 11.627L2.02637 8.59277C1.90996 8.49194 1.82575 8.35923 1.78418 8.21094C1.74257 8.06222 1.74549 7.90379 1.79297 7.75684C1.84044 7.61015 1.93027 7.48093 2.05078 7.38477C2.17148 7.28854 2.31792 7.2294 2.47168 7.21582L2.4707 7.21484L7.07812 6.84473L7.38281 6.81934L7.5 6.53711L9.27734 2.2334L9.27832 2.23242C9.33691 2.08982 9.43642 1.96772 9.56445 1.88184C9.69263 1.79589 9.84372 1.75 9.99805 1.75Z" stroke="#FB9E3C"/>
<path d="M18.3039 8.97177L14.7882 12.0054L15.8593 16.5421C15.9184 16.7884 15.9032 17.0466 15.8156 17.2843C15.728 17.5219 15.5719 17.7282 15.3671 17.8772C15.1623 18.0262 14.9179 18.1111 14.6648 18.1213C14.4118 18.1314 14.1614 18.0663 13.9453 17.9343L9.99995 15.5061L6.0523 17.9343C5.83622 18.0656 5.58613 18.13 5.3335 18.1195C5.08087 18.109 4.837 18.0239 4.63261 17.8751C4.42822 17.7262 4.27243 17.5202 4.18488 17.283C4.09732 17.0458 4.08191 16.788 4.14058 16.5421L5.21558 12.0054L1.69995 8.97177C1.50878 8.80654 1.37052 8.58865 1.30244 8.34532C1.23436 8.10198 1.23947 7.84398 1.31715 7.60354C1.39483 7.36309 1.54162 7.15086 1.73919 6.99335C1.93677 6.83583 2.17637 6.74001 2.42808 6.71786L7.03745 6.34598L8.81558 2.04286C8.91182 1.80834 9.07563 1.60774 9.28618 1.46656C9.49673 1.32538 9.7445 1.25 9.998 1.25C10.2515 1.25 10.4993 1.32538 10.7098 1.46656C10.9204 1.60774 11.0842 1.80834 11.1804 2.04286L12.9578 6.34598L17.5671 6.71786C17.8193 6.73919 18.0596 6.83447 18.2579 6.99177C18.4562 7.14907 18.6037 7.36139 18.6819 7.60212C18.76 7.84286 18.7654 8.10131 18.6973 8.34509C18.6292 8.58886 18.4907 8.80713 18.2992 8.97255L18.3039 8.97177Z" fill="url(#paint0_linear_1_232)"/>
<defs>
<linearGradient id="paint0_linear_1_232" x1="18.7447" y1="9.68615" x2="1.25488" y2="9.68615" gradientUnits="userSpaceOnUse">
<stop offset="0.5" stop-color="#FB9E3C" stop-opacity="0"/>
<stop offset="0.5" stop-color="#FA8305"/>
</linearGradient>
</defs>
</svg>
