<svg width="32" height="32" viewBox="0 0 32 32" fill="none" xmlns="http://www.w3.org/2000/svg">
<rect x="0.25" y="0.25" width="31.5" height="31.5" rx="1.75" fill="#D10123" fill-opacity="0.25" stroke="#D10123" stroke-width="0.5"/>
<path d="M22.875 9.125H9.125C8.79348 9.125 8.47554 9.2567 8.24112 9.49112C8.0067 9.72554 7.875 10.0435 7.875 10.375V21.625C7.875 21.9565 8.0067 22.2745 8.24112 22.5089C8.47554 22.7433 8.79348 22.875 9.125 22.875H22.875C23.2065 22.875 23.5245 22.7433 23.7589 22.5089C23.9933 22.2745 24.125 21.9565 24.125 21.625V10.375C24.125 10.0435 23.9933 9.72554 23.7589 9.49112C23.5245 9.2567 23.2065 9.125 22.875 9.125ZM22.875 10.375V13.5H9.125V10.375H22.875ZM9.125 14.75H13.5V21.625H9.125V14.75ZM22.875 21.625H14.75V14.75H22.875V21.625Z" fill="#D10123"/>
</svg>
