<svg width="32" height="32" viewBox="0 0 32 32" fill="none" xmlns="http://www.w3.org/2000/svg">
<rect x="0.25" y="0.25" width="31.5" height="31.5" rx="1.75" fill="#1B80C8" fill-opacity="0.25" stroke="#1B80C8" stroke-width="0.5"/>
<path d="M23.475 11.1684L16.6 7.40669C16.4163 7.30519 16.2099 7.25195 16 7.25195C15.7901 7.25195 15.5837 7.30519 15.4 7.40669L8.525 11.17C8.32866 11.2774 8.16477 11.4356 8.05043 11.628C7.93609 11.8204 7.87551 12.0399 7.875 12.2637V19.7356C7.87551 19.9594 7.93609 20.179 8.05043 20.3714C8.16477 20.5638 8.32866 20.7219 8.525 20.8293L15.4 24.5926C15.5837 24.6941 15.7901 24.7474 16 24.7474C16.2099 24.7474 16.4163 24.6941 16.6 24.5926L23.475 20.8293C23.6713 20.7219 23.8352 20.5638 23.9496 20.3714C24.0639 20.179 24.1245 19.9594 24.125 19.7356V12.2645C24.1249 12.0403 24.0645 11.8202 23.9502 11.6274C23.8358 11.4346 23.6717 11.276 23.475 11.1684ZM16 8.50044L22.2766 11.9379L16 15.3754L9.72344 11.9379L16 8.50044ZM9.125 13.0317L15.375 16.452V23.1543L9.125 19.7364V13.0317ZM16.625 23.1543V16.4551L22.875 13.0317V19.7333L16.625 23.1543Z" fill="#1B80C8"/>
</svg>
