<svg width="32" height="32" viewBox="0 0 32 32" fill="none" xmlns="http://www.w3.org/2000/svg">
<rect x="0.25" y="0.25" width="31.5" height="31.5" rx="1.75" fill="#D10123" fill-opacity="0.25" stroke="#D10123" stroke-width="0.5"/>
<path d="M19.7501 24.125C19.7501 24.2908 19.6843 24.4498 19.567 24.567C19.4498 24.6842 19.2909 24.75 19.1251 24.75H12.8751C12.7093 24.75 12.5504 24.6842 12.4332 24.567C12.316 24.4498 12.2501 24.2908 12.2501 24.125C12.2501 23.9593 12.316 23.8003 12.4332 23.6831C12.5504 23.5659 12.7093 23.5 12.8751 23.5H19.1251C19.2909 23.5 19.4498 23.5659 19.567 23.6831C19.6843 23.8003 19.7501 23.9593 19.7501 24.125ZM22.8751 14.125C22.8778 15.167 22.6424 16.1957 22.1869 17.1328C21.7315 18.0699 21.0679 18.8905 20.247 19.5321C20.0935 19.6497 19.9689 19.8009 19.8828 19.9741C19.7967 20.1473 19.7513 20.3379 19.7501 20.5313V21C19.7501 21.3316 19.6184 21.6495 19.384 21.8839C19.1496 22.1183 18.8316 22.25 18.5001 22.25H13.5001C13.1686 22.25 12.8506 22.1183 12.6162 21.8839C12.3818 21.6495 12.2501 21.3316 12.2501 21V20.5313C12.25 20.3402 12.206 20.1517 12.1217 19.9802C12.0373 19.8088 11.9147 19.6589 11.7634 19.5422C10.9446 18.9045 10.2816 18.089 9.82447 17.1572C9.3674 16.2254 9.12824 15.2019 9.1251 14.1641C9.10479 10.4399 12.1142 7.33989 15.8345 7.25004C16.7512 7.22795 17.663 7.38946 18.5163 7.72506C19.3696 8.06065 20.1472 8.56356 20.8033 9.20418C21.4593 9.84479 21.9806 10.6102 22.3364 11.4553C22.6922 12.3004 22.8754 13.2081 22.8751 14.125ZM21.6251 14.125C21.6253 13.3748 21.4754 12.6321 21.1843 11.9406C20.8932 11.2491 20.4666 10.6229 19.9298 10.0987C19.393 9.57458 18.7568 9.16312 18.0585 8.88856C17.3603 8.61401 16.6142 8.48191 15.8642 8.50004C12.8173 8.57192 10.3587 11.1086 10.3751 14.1555C10.3779 15.0044 10.5738 15.8416 10.9479 16.6036C11.322 17.3656 11.8645 18.0326 12.5345 18.5539C12.8356 18.788 13.0792 19.0879 13.2465 19.4307C13.4139 19.7734 13.5007 20.1499 13.5001 20.5313V21H15.3751V17.5086L13.0579 15.1922C12.9406 15.075 12.8748 14.9159 12.8748 14.75C12.8748 14.5842 12.9406 14.4251 13.0579 14.3079C13.1752 14.1906 13.3342 14.1247 13.5001 14.1247C13.666 14.1247 13.825 14.1906 13.9423 14.3079L16.0001 16.3664L18.0579 14.3079C18.116 14.2498 18.1849 14.2037 18.2608 14.1723C18.3367 14.1409 18.418 14.1247 18.5001 14.1247C18.5822 14.1247 18.6635 14.1409 18.7394 14.1723C18.8153 14.2037 18.8842 14.2498 18.9423 14.3079C19.0004 14.3659 19.0464 14.4349 19.0778 14.5107C19.1093 14.5866 19.1255 14.6679 19.1255 14.75C19.1255 14.8322 19.1093 14.9135 19.0778 14.9894C19.0464 15.0652 19.0004 15.1342 18.9423 15.1922L16.6251 17.5086V21H18.5001V20.5313C18.5008 20.1488 18.5889 19.7714 18.7578 19.4282C18.9266 19.0849 19.1717 18.7848 19.4743 18.5508C20.1463 18.0257 20.6894 17.354 21.0621 16.5869C21.4349 15.8199 21.6274 14.9778 21.6251 14.125Z" fill="#D10123"/>
</svg>
