<svg width="32" height="32" viewBox="0 0 32 32" fill="none" xmlns="http://www.w3.org/2000/svg">
<rect x="0.25" y="0.25" width="31.5" height="31.5" rx="1.75" fill="#1B80C8" fill-opacity="0.25" stroke="#1B80C8" stroke-width="0.5"/>
<path d="M21.6852 10.2102C20.1724 8.71218 18.1289 7.87282 16 7.875H15.9164C13.776 7.89703 11.7308 8.76276 10.2251 10.2841C8.71943 11.8055 7.87489 13.8595 7.875 16C7.875 19.3594 9.95156 22.1766 13.2938 23.357C13.6707 23.4899 14.074 23.5305 14.4699 23.4754C14.8658 23.4202 15.2427 23.271 15.569 23.0401C15.8953 22.8092 16.1614 22.5035 16.3452 22.1485C16.5289 21.7936 16.6249 21.3997 16.625 21C16.625 20.6685 16.7567 20.3505 16.9911 20.1161C17.2255 19.8817 17.5435 19.75 17.875 19.75H21.4852C22.0523 19.7527 22.6032 19.5615 23.0466 19.2079C23.49 18.8543 23.7991 18.3597 23.9227 17.8063C24.0624 17.1912 24.1303 16.562 24.125 15.9313C24.117 14.8636 23.8973 13.8082 23.4785 12.8262C23.0597 11.8441 22.4501 10.9549 21.6852 10.2102ZM22.7008 17.5313C22.6387 17.807 22.4844 18.0533 22.2634 18.2294C22.0423 18.4056 21.7678 18.501 21.4852 18.5H17.875C17.212 18.5 16.5761 18.7634 16.1072 19.2322C15.6384 19.7011 15.375 20.337 15.375 21C15.3747 21.1997 15.3266 21.3963 15.2347 21.5736C15.1428 21.7508 15.0098 21.9035 14.8467 22.0188C14.6837 22.1341 14.4955 22.2086 14.2977 22.2362C14.1 22.2638 13.8985 22.2436 13.7102 22.1773C10.882 21.1797 9.125 18.8125 9.125 16C9.1249 14.1889 9.83946 12.4509 11.1134 11.1636C12.3874 9.87632 14.1179 9.14373 15.9289 9.125H15.9992C17.8103 9.13204 19.5461 9.85061 20.8322 11.1258C22.1183 12.4009 22.8517 14.1305 22.8742 15.9414C22.8789 16.4761 22.8217 17.0096 22.7039 17.5313H22.7008ZM16.9375 11.9375C16.9375 12.1229 16.8825 12.3042 16.7795 12.4584C16.6765 12.6125 16.5301 12.7327 16.3588 12.8036C16.1875 12.8746 15.999 12.8932 15.8171 12.857C15.6352 12.8208 15.4682 12.7315 15.3371 12.6004C15.206 12.4693 15.1167 12.3023 15.0805 12.1204C15.0443 11.9385 15.0629 11.75 15.1339 11.5787C15.2048 11.4074 15.325 11.261 15.4792 11.158C15.6333 11.055 15.8146 11 16 11C16.2486 11 16.4871 11.0988 16.6629 11.2746C16.8387 11.4504 16.9375 11.6889 16.9375 11.9375ZM13.5 13.8125C13.5 13.9979 13.445 14.1792 13.342 14.3334C13.239 14.4875 13.0926 14.6077 12.9213 14.6786C12.75 14.7496 12.5615 14.7682 12.3796 14.732C12.1977 14.6958 12.0307 14.6065 11.8996 14.4754C11.7685 14.3443 11.6792 14.1773 11.643 13.9954C11.6068 13.8135 11.6254 13.625 11.6964 13.4537C11.7673 13.2824 11.8875 13.136 12.0417 13.033C12.1958 12.93 12.3771 12.875 12.5625 12.875C12.8111 12.875 13.0496 12.9738 13.2254 13.1496C13.4012 13.3254 13.5 13.5639 13.5 13.8125ZM13.5 18.1875C13.5 18.3729 13.445 18.5542 13.342 18.7084C13.239 18.8625 13.0926 18.9827 12.9213 19.0536C12.75 19.1246 12.5615 19.1432 12.3796 19.107C12.1977 19.0708 12.0307 18.9815 11.8996 18.8504C11.7685 18.7193 11.6792 18.5523 11.643 18.3704C11.6068 18.1885 11.6254 18 11.6964 17.8287C11.7673 17.6574 11.8875 17.511 12.0417 17.408C12.1958 17.305 12.3771 17.25 12.5625 17.25C12.8111 17.25 13.0496 17.3488 13.2254 17.5246C13.4012 17.7004 13.5 17.9389 13.5 18.1875ZM20.375 13.8125C20.375 13.9979 20.32 14.1792 20.217 14.3334C20.114 14.4875 19.9676 14.6077 19.7963 14.6786C19.625 14.7496 19.4365 14.7682 19.2546 14.732C19.0727 14.6958 18.9057 14.6065 18.7746 14.4754C18.6435 14.3443 18.5542 14.1773 18.518 13.9954C18.4818 13.8135 18.5004 13.625 18.5714 13.4537C18.6423 13.2824 18.7625 13.136 18.9167 13.033C19.0708 12.93 19.2521 12.875 19.4375 12.875C19.6861 12.875 19.9246 12.9738 20.1004 13.1496C20.2762 13.3254 20.375 13.5639 20.375 13.8125Z" fill="#1B80C8"/>
</svg>
