<svg width="32" height="32" viewBox="0 0 32 32" fill="none" xmlns="http://www.w3.org/2000/svg">
<rect x="0.25" y="0.25" width="31.5" height="31.5" rx="1.75" fill="#1B80C8" fill-opacity="0.25" stroke="#1B80C8" stroke-width="0.5"/>
<path d="M24.125 22.25C24.125 22.4158 24.0592 22.5747 23.9419 22.6919C23.8247 22.8092 23.6658 22.875 23.5 22.875H8.5C8.33424 22.875 8.17527 22.8092 8.05806 22.6919C7.94085 22.5747 7.875 22.4158 7.875 22.25V9.75C7.875 9.58424 7.94085 9.42527 8.05806 9.30806C8.17527 9.19085 8.33424 9.125 8.5 9.125C8.66576 9.125 8.82473 9.19085 8.94194 9.30806C9.05915 9.42527 9.125 9.58424 9.125 9.75V18.2414L13.0578 14.3078C13.1159 14.2497 13.1848 14.2036 13.2607 14.1722C13.3365 14.1407 13.4179 14.1245 13.5 14.1245C13.5821 14.1245 13.6635 14.1407 13.7393 14.1722C13.8152 14.2036 13.8841 14.2497 13.9422 14.3078L16 16.3664L20.1164 12.25H18.5C18.3342 12.25 18.1753 12.1842 18.0581 12.0669C17.9408 11.9497 17.875 11.7908 17.875 11.625C17.875 11.4592 17.9408 11.3003 18.0581 11.1831C18.1753 11.0658 18.3342 11 18.5 11H21.625C21.7908 11 21.9497 11.0658 22.0669 11.1831C22.1842 11.3003 22.25 11.4592 22.25 11.625V14.75C22.25 14.9158 22.1842 15.0747 22.0669 15.1919C21.9497 15.3092 21.7908 15.375 21.625 15.375C21.4592 15.375 21.3003 15.3092 21.1831 15.1919C21.0658 15.0747 21 14.9158 21 14.75V13.1336L16.4422 17.6922C16.3841 17.7503 16.3152 17.7964 16.2393 17.8279C16.1635 17.8593 16.0821 17.8755 16 17.8755C15.9179 17.8755 15.8365 17.8593 15.7607 17.8279C15.6848 17.7964 15.6159 17.7503 15.5578 17.6922L13.5 15.6336L9.125 20.0086V21.625H23.5C23.6658 21.625 23.8247 21.6908 23.9419 21.8081C24.0592 21.9253 24.125 22.0842 24.125 22.25Z" fill="#1B80C8"/>
</svg>
